<mxfile host="app.diagrams.net" modified="2024-05-31T17:12:25.149Z" agent="Mozilla/5.0 (Macintosh; Intel Mac OS X 10_15_7) AppleWebKit/537.36 (KHTML, like Gecko) Chrome/125.0.0.0 Safari/537.36" etag="wsMC7CKb4WtNs4MMRenU" version="24.4.10" type="device">
  <diagram name="Page-1" id="E5owYUaEd-9mKCyrUisl">
    <mxGraphModel dx="1220" dy="729" grid="1" gridSize="10" guides="1" tooltips="1" connect="1" arrows="1" fold="1" page="1" pageScale="1" pageWidth="850" pageHeight="1100" math="0" shadow="0">
      <root>
        <mxCell id="0" />
        <mxCell id="1" parent="0" />
        <mxCell id="1xhdogJnt5Gqf_VvMB8D-4" value="c" style="ellipse;whiteSpace=wrap;html=1;" parent="1" vertex="1">
          <mxGeometry x="150" y="525" width="40" height="30" as="geometry" />
        </mxCell>
        <mxCell id="1xhdogJnt5Gqf_VvMB8D-7" value="K" style="ellipse;whiteSpace=wrap;html=1;" parent="1" vertex="1">
          <mxGeometry x="150" y="575" width="40" height="30" as="geometry" />
        </mxCell>
        <mxCell id="1xhdogJnt5Gqf_VvMB8D-8" style="edgeStyle=none;rounded=0;orthogonalLoop=1;jettySize=auto;html=1;exitX=1;exitY=0.5;exitDx=0;exitDy=0;entryX=0;entryY=0.5;entryDx=0;entryDy=0;" parent="1" source="1xhdogJnt5Gqf_VvMB8D-9" target="1xhdogJnt5Gqf_VvMB8D-19" edge="1">
          <mxGeometry relative="1" as="geometry">
            <mxPoint x="430" y="650" as="targetPoint" />
          </mxGeometry>
        </mxCell>
        <mxCell id="1xhdogJnt5Gqf_VvMB8D-9" value="N" style="ellipse;whiteSpace=wrap;html=1;" parent="1" vertex="1">
          <mxGeometry x="150" y="625" width="40" height="30" as="geometry" />
        </mxCell>
        <mxCell id="RPDYWHDPq_-WObZG3oG0-7" style="edgeStyle=none;rounded=0;orthogonalLoop=1;jettySize=auto;html=1;exitX=1;exitY=0.5;exitDx=0;exitDy=0;entryX=0;entryY=1;entryDx=0;entryDy=0;" edge="1" parent="1" source="1xhdogJnt5Gqf_VvMB8D-12" target="RPDYWHDPq_-WObZG3oG0-1">
          <mxGeometry relative="1" as="geometry" />
        </mxCell>
        <mxCell id="1xhdogJnt5Gqf_VvMB8D-12" value="mu" style="ellipse;whiteSpace=wrap;html=1;" parent="1" vertex="1">
          <mxGeometry x="290" y="940" width="40" height="30" as="geometry" />
        </mxCell>
        <mxCell id="RPDYWHDPq_-WObZG3oG0-4" style="edgeStyle=none;rounded=0;orthogonalLoop=1;jettySize=auto;html=1;exitX=1;exitY=0.5;exitDx=0;exitDy=0;entryX=0;entryY=0.5;entryDx=0;entryDy=0;" edge="1" parent="1" source="1xhdogJnt5Gqf_VvMB8D-15" target="1xhdogJnt5Gqf_VvMB8D-17">
          <mxGeometry relative="1" as="geometry" />
        </mxCell>
        <mxCell id="1xhdogJnt5Gqf_VvMB8D-15" value="alpha" style="ellipse;whiteSpace=wrap;html=1;" parent="1" vertex="1">
          <mxGeometry x="290" y="840" width="40" height="30" as="geometry" />
        </mxCell>
        <mxCell id="1xhdogJnt5Gqf_VvMB8D-16" style="edgeStyle=none;rounded=0;orthogonalLoop=1;jettySize=auto;html=1;exitX=1;exitY=0.5;exitDx=0;exitDy=0;entryX=0;entryY=0.5;entryDx=0;entryDy=0;" parent="1" source="1xhdogJnt5Gqf_VvMB8D-17" target="1xhdogJnt5Gqf_VvMB8D-36" edge="1">
          <mxGeometry relative="1" as="geometry" />
        </mxCell>
        <mxCell id="1xhdogJnt5Gqf_VvMB8D-17" value="Y" style="ellipse;whiteSpace=wrap;html=1;" parent="1" vertex="1">
          <mxGeometry x="530" y="780" width="60" height="30" as="geometry" />
        </mxCell>
        <mxCell id="1xhdogJnt5Gqf_VvMB8D-18" style="edgeStyle=none;rounded=0;orthogonalLoop=1;jettySize=auto;html=1;exitX=1;exitY=0.5;exitDx=0;exitDy=0;entryX=0;entryY=0.5;entryDx=0;entryDy=0;" parent="1" source="1xhdogJnt5Gqf_VvMB8D-19" target="1xhdogJnt5Gqf_VvMB8D-36" edge="1">
          <mxGeometry relative="1" as="geometry" />
        </mxCell>
        <mxCell id="1xhdogJnt5Gqf_VvMB8D-19" value="g" style="ellipse;whiteSpace=wrap;html=1;" parent="1" vertex="1">
          <mxGeometry x="530" y="620" width="60" height="30" as="geometry" />
        </mxCell>
        <mxCell id="1xhdogJnt5Gqf_VvMB8D-22" style="edgeStyle=none;rounded=0;orthogonalLoop=1;jettySize=auto;html=1;exitX=1;exitY=0.5;exitDx=0;exitDy=0;entryX=0;entryY=0.5;entryDx=0;entryDy=0;" parent="1" source="1xhdogJnt5Gqf_VvMB8D-23" target="1xhdogJnt5Gqf_VvMB8D-4" edge="1">
          <mxGeometry relative="1" as="geometry" />
        </mxCell>
        <mxCell id="1xhdogJnt5Gqf_VvMB8D-23" value="&lt;div style=&quot;text-align: left;&quot;&gt;&lt;font face=&quot;Roboto, arial, sans-serif&quot;&gt;&lt;span style=&quot;font-size: 14px;&quot;&gt;prior&lt;/span&gt;&lt;/font&gt;&lt;br&gt;&lt;/div&gt;" style="ellipse;whiteSpace=wrap;html=1;" parent="1" vertex="1">
          <mxGeometry x="50" y="435" width="50" height="30" as="geometry" />
        </mxCell>
        <mxCell id="1xhdogJnt5Gqf_VvMB8D-28" style="edgeStyle=none;rounded=0;orthogonalLoop=1;jettySize=auto;html=1;exitX=1;exitY=0.5;exitDx=0;exitDy=0;entryX=0;entryY=0.5;entryDx=0;entryDy=0;" parent="1" source="1xhdogJnt5Gqf_VvMB8D-29" target="1xhdogJnt5Gqf_VvMB8D-7" edge="1">
          <mxGeometry relative="1" as="geometry" />
        </mxCell>
        <mxCell id="1xhdogJnt5Gqf_VvMB8D-29" value="&lt;div style=&quot;text-align: left;&quot;&gt;&lt;font face=&quot;Roboto, arial, sans-serif&quot;&gt;&lt;span style=&quot;font-size: 14px;&quot;&gt;prior&lt;/span&gt;&lt;/font&gt;&lt;/div&gt;" style="ellipse;whiteSpace=wrap;html=1;" parent="1" vertex="1">
          <mxGeometry x="50" y="535" width="50" height="30" as="geometry" />
        </mxCell>
        <mxCell id="1xhdogJnt5Gqf_VvMB8D-36" value="post" style="ellipse;whiteSpace=wrap;html=1;" parent="1" vertex="1">
          <mxGeometry x="700" y="710" width="60" height="30" as="geometry" />
        </mxCell>
        <mxCell id="1xhdogJnt5Gqf_VvMB8D-37" value="" style="edgeStyle=none;rounded=0;orthogonalLoop=1;jettySize=auto;html=1;" parent="1" source="1xhdogJnt5Gqf_VvMB8D-38" target="1xhdogJnt5Gqf_VvMB8D-4" edge="1">
          <mxGeometry relative="1" as="geometry" />
        </mxCell>
        <mxCell id="1xhdogJnt5Gqf_VvMB8D-38" value="&lt;div style=&quot;&quot;&gt;&lt;font style=&quot;font-size: 8px;&quot; face=&quot;Roboto, arial, sans-serif&quot;&gt;initial value&lt;/font&gt;&lt;br&gt;&lt;/div&gt;" style="ellipse;whiteSpace=wrap;html=1;" parent="1" vertex="1">
          <mxGeometry x="50" y="495" width="50" height="30" as="geometry" />
        </mxCell>
        <mxCell id="1xhdogJnt5Gqf_VvMB8D-39" value="" style="edgeStyle=none;rounded=0;orthogonalLoop=1;jettySize=auto;html=1;entryX=0;entryY=0.5;entryDx=0;entryDy=0;" parent="1" source="1xhdogJnt5Gqf_VvMB8D-40" target="1xhdogJnt5Gqf_VvMB8D-7" edge="1">
          <mxGeometry relative="1" as="geometry" />
        </mxCell>
        <mxCell id="1xhdogJnt5Gqf_VvMB8D-40" value="&lt;div style=&quot;&quot;&gt;&lt;font style=&quot;font-size: 8px;&quot; face=&quot;Roboto, arial, sans-serif&quot;&gt;initial value&lt;/font&gt;&lt;br&gt;&lt;/div&gt;" style="ellipse;whiteSpace=wrap;html=1;" parent="1" vertex="1">
          <mxGeometry x="50" y="595" width="50" height="30" as="geometry" />
        </mxCell>
        <mxCell id="1xhdogJnt5Gqf_VvMB8D-41" value="" style="edgeStyle=none;rounded=0;orthogonalLoop=1;jettySize=auto;html=1;" parent="1" source="1xhdogJnt5Gqf_VvMB8D-42" target="1xhdogJnt5Gqf_VvMB8D-9" edge="1">
          <mxGeometry relative="1" as="geometry" />
        </mxCell>
        <mxCell id="1xhdogJnt5Gqf_VvMB8D-42" value="&lt;div style=&quot;&quot;&gt;&lt;font style=&quot;font-size: 8px;&quot; face=&quot;Roboto, arial, sans-serif&quot;&gt;initial value&lt;/font&gt;&lt;br&gt;&lt;/div&gt;" style="ellipse;whiteSpace=wrap;html=1;" parent="1" vertex="1">
          <mxGeometry x="50" y="635" width="50" height="30" as="geometry" />
        </mxCell>
        <mxCell id="1xhdogJnt5Gqf_VvMB8D-48" value="lambdas_i" style="ellipse;whiteSpace=wrap;html=1;" parent="1" vertex="1">
          <mxGeometry x="260" y="690" width="80" height="40" as="geometry" />
        </mxCell>
        <mxCell id="1xhdogJnt5Gqf_VvMB8D-50" value="prior" style="ellipse;whiteSpace=wrap;html=1;" parent="1" vertex="1">
          <mxGeometry x="120" y="725" width="80" height="40" as="geometry" />
        </mxCell>
        <mxCell id="RPDYWHDPq_-WObZG3oG0-5" style="edgeStyle=none;rounded=0;orthogonalLoop=1;jettySize=auto;html=1;exitX=1;exitY=0;exitDx=0;exitDy=0;entryX=0;entryY=0.5;entryDx=0;entryDy=0;" edge="1" parent="1" source="RPDYWHDPq_-WObZG3oG0-1" target="1xhdogJnt5Gqf_VvMB8D-17">
          <mxGeometry relative="1" as="geometry" />
        </mxCell>
        <mxCell id="RPDYWHDPq_-WObZG3oG0-1" value="subst model" style="rounded=0;whiteSpace=wrap;html=1;" vertex="1" parent="1">
          <mxGeometry x="380" y="900" width="40" height="30" as="geometry" />
        </mxCell>
        <mxCell id="RPDYWHDPq_-WObZG3oG0-16" value="" style="edgeStyle=none;rounded=0;orthogonalLoop=1;jettySize=auto;html=1;" edge="1" parent="1" source="RPDYWHDPq_-WObZG3oG0-14" target="1xhdogJnt5Gqf_VvMB8D-15">
          <mxGeometry relative="1" as="geometry" />
        </mxCell>
        <mxCell id="RPDYWHDPq_-WObZG3oG0-14" value="prior" style="rounded=0;whiteSpace=wrap;html=1;" vertex="1" parent="1">
          <mxGeometry x="210" y="820" width="40" height="30" as="geometry" />
        </mxCell>
        <mxCell id="RPDYWHDPq_-WObZG3oG0-17" value="" style="edgeStyle=none;rounded=0;orthogonalLoop=1;jettySize=auto;html=1;" edge="1" parent="1" source="RPDYWHDPq_-WObZG3oG0-15" target="1xhdogJnt5Gqf_VvMB8D-15">
          <mxGeometry relative="1" as="geometry" />
        </mxCell>
        <mxCell id="RPDYWHDPq_-WObZG3oG0-15" value="init val" style="rounded=0;whiteSpace=wrap;html=1;" vertex="1" parent="1">
          <mxGeometry x="210" y="860" width="50" height="30" as="geometry" />
        </mxCell>
        <mxCell id="RPDYWHDPq_-WObZG3oG0-21" value="" style="edgeStyle=none;rounded=0;orthogonalLoop=1;jettySize=auto;html=1;" edge="1" parent="1" source="RPDYWHDPq_-WObZG3oG0-18" target="1xhdogJnt5Gqf_VvMB8D-12">
          <mxGeometry relative="1" as="geometry" />
        </mxCell>
        <mxCell id="RPDYWHDPq_-WObZG3oG0-18" value="prior" style="rounded=0;whiteSpace=wrap;html=1;" vertex="1" parent="1">
          <mxGeometry x="200" y="930" width="40" height="30" as="geometry" />
        </mxCell>
        <mxCell id="RPDYWHDPq_-WObZG3oG0-20" value="" style="edgeStyle=none;rounded=0;orthogonalLoop=1;jettySize=auto;html=1;" edge="1" parent="1" source="RPDYWHDPq_-WObZG3oG0-19" target="1xhdogJnt5Gqf_VvMB8D-12">
          <mxGeometry relative="1" as="geometry" />
        </mxCell>
        <mxCell id="RPDYWHDPq_-WObZG3oG0-19" value="init val" style="rounded=0;whiteSpace=wrap;html=1;" vertex="1" parent="1">
          <mxGeometry x="200" y="970" width="50" height="30" as="geometry" />
        </mxCell>
        <mxCell id="RPDYWHDPq_-WObZG3oG0-22" value="subst model" style="rounded=0;whiteSpace=wrap;html=1;" vertex="1" parent="1">
          <mxGeometry x="360" y="510" width="40" height="30" as="geometry" />
        </mxCell>
      </root>
    </mxGraphModel>
  </diagram>
</mxfile>
